<svg xmlns="http://www.w3.org/2000/svg" xmlns:xlink="http://www.w3.org/1999/xlink" width="553.172" height="280.71" viewBox="0 0 553.172 280.71"><defs><style>.a,.ak,.an{fill:#fff;}.a{stroke:#707070;stroke-width:0.75px;}.a,.y{opacity:0.28;}.ao,.b{fill:#c7daee;}.b{opacity:0.37;}.au,.c,.j,.t{fill:none;}.c{stroke:#5ba8fc;stroke-linecap:round;stroke-dasharray:5;}.ab,.c,.i,.j,.k,.l,.m,.n,.t,.w,.x{stroke-miterlimit:10;}.d{fill:#75a3ff;}.e{fill:#3879fc;}.f{fill:#0040e6;}.g{fill:#001acb;}.h,.i{fill:#e4e5e6;}.i,.j,.m{stroke:#fff;}.aa,.k,.l,.m,.n{fill:#1e242d;}.ab,.k,.l,.n,.w,.x{stroke:rgba(0,0,0,0);}.k{opacity:0.44;}.l{opacity:0.61;}.aq,.ar,.o,.u{fill:#9b9ea2;}.o{opacity:0.27;}.ak,.p{opacity:0.6;}.q{fill:#0a60ff;}.r{opacity:0.65;}.s,.v{fill:#016fe8;}.t{stroke:#0034db;}.u{opacity:0.69;}.v{opacity:0.57;}.w{fill:#efd3c1;}.ad,.x{fill:#b59a8f;}.x{opacity:0.24;}.af,.y{fill:#051c2b;}.z{fill:#1c2129;}.ab,.ae{fill:#fae1ce;}.ac{fill:#f8cc83;}.ad{opacity:0.43;}.ag{fill:#fdf3e1;}.ah{fill:#5e7cc2;}.ai{opacity:0.74;}.aj{fill:#b5d2f3;}.al{opacity:0.59;}.am{opacity:0.35;}.ap{fill:#e6f0fc;}.aq{opacity:0.11;}.ar{opacity:0.1;}.as{opacity:0.42;}.at{stroke:none;}.av{filter:url(#a);}</style><filter id="a" x="298.797" y="109.657" width="138.405" height="171.052" filterUnits="userSpaceOnUse"><feOffset dy="3" input="SourceAlpha"/><feGaussianBlur stdDeviation="3" result="b"/><feFlood flood-opacity="0.161"/><feComposite operator="in" in2="b"/><feComposite in="SourceGraphic"/></filter></defs><g transform="translate(-638.404 -183.974)"><g class="a" transform="matrix(0.883, 0.469, -0.469, 0.883, 821.76, 316.943)"><rect class="at" width="6" height="6" rx="2"/><rect class="au" x="0.375" y="0.375" width="5.25" height="5.25" rx="1.625"/></g><g class="a" transform="matrix(0.883, 0.469, -0.469, 0.883, 1100.76, 295.943)"><rect class="at" width="6" height="6" rx="2"/><rect class="au" x="0.375" y="0.375" width="5.25" height="5.25" rx="1.625"/></g><path class="b" d="M-6004.825,241h-250.35a152.357,152.357,0,0,1-20.485-41.05A152.905,152.905,0,0,1-6283,153a154.144,154.144,0,0,1,3.108-30.835,152.255,152.255,0,0,1,8.915-28.72,153.005,153.005,0,0,1,14.106-25.989,154.072,154.072,0,0,1,18.683-22.644,154.071,154.071,0,0,1,22.643-18.683,153.024,153.024,0,0,1,25.989-14.106,152.225,152.225,0,0,1,28.72-8.915A154.127,154.127,0,0,1-6130,0a154.127,154.127,0,0,1,30.834,3.108,152.224,152.224,0,0,1,28.72,8.915,153,153,0,0,1,25.989,14.106,154.061,154.061,0,0,1,22.644,18.683,154.072,154.072,0,0,1,18.683,22.644,153.005,153.005,0,0,1,14.106,25.989,152.263,152.263,0,0,1,8.915,28.72A154.144,154.144,0,0,1-5977,153a152.9,152.9,0,0,1-7.339,46.95A152.353,152.353,0,0,1-6004.825,241Z" transform="translate(7068 210)"/><path class="c" d="M1159.883,586.815c-94.664,13.893-172.169,34.3-163.59,50.875,10.662,20.591,112.532,15.8,126.9,17.663" transform="translate(-356.725 -321.291)"/><path class="c" d="M1166.811,677.1s149.525-24.753,92.031-68.74c-20.408-15.613-94.028-23.844-180.064-25.943" transform="translate(-80.958 -352.333)"/><g transform="translate(908.025 183.974)"><path class="d" d="M1141.636,618.356l-12.451,33.29-55.968-46.5Z" transform="translate(-1073.218 -576.62)"/><path class="e" d="M1073.218,626.036l74.454-1.066,8.388-27.456Z" transform="translate(-1073.218 -597.515)"/><path class="f" d="M1147.671,604.857l-74.454,1.065,68.419,13.215,14.736,5.5Z" transform="translate(-1073.218 -577.401)"/><path class="g" d="M1093.418,608.675l14.736,5.5-17.337,1.55Z" transform="translate(-1025 -566.939)"/></g><g transform="translate(-424 -385)"><g transform="translate(1264.365 693.605)"><path class="h" d="M1136.951,928.364c-.564-13.933,6.221-19.141,1.788-30.47-2.651-6.775-6.507-8.568-7.931-16.825-.653-3.789-.146-7.893.9-15.948,1.582-12.233,2.374-18.35,4.891-18.927,3.49-.8,5.044,8.824,15.058,14,7.128,3.68,9.612.494,15.369,4.17,4.653,2.971,7.277,8.962,12.335,20.823,4.243,9.95,4.228,12.389,7.65,15.258,5.64,4.727,10.531,2.168,14.939,5.023,11.122,7.2,12.963,44.827-9.409,58.362-11.385,6.889-26.617,6.072-37.451-.667C1138.27,952.7,1137.061,931.081,1136.951,928.364Z" transform="translate(-1130.517 -846.147)"/><path class="i" d="M1139.573,847.1s5.052,15.477,13.265,38.643S1195.073,965,1195.073,965" transform="translate(-1134.386 -846.556)"/><line class="j" y1="45.494" x2="20.558" transform="translate(54.761 63.643)"/><line class="j" y1="42.574" x2="10.204" transform="translate(30.57 22.128)"/><line class="j" x2="20.928" y2="7.27" transform="translate(9.642 57.432)"/><line class="j" x2="19.164" y2="10.343" transform="translate(0.004 30.767)"/><line class="j" x2="44.645" y2="10.082" transform="translate(10.013 98.815)"/><line class="j" x1="35.342" y1="8.569" transform="translate(6.544 77.218)"/><line class="j" y1="40.755" x2="9.825" transform="translate(41.887 45.033)"/><line class="j" x1="7.197" y2="25.66" transform="translate(19.281 15.865)"/></g><g class="av" transform="matrix(1, 0, 0, 1, 1062.4, 568.97)"><path class="k" d="M-6198.8,152.053h-83.454a52.855,52.855,0,0,1-9.8-23.451,48.641,48.641,0,0,1,1.178-19.545,61.932,61.932,0,0,1,6.813-15.9,75.842,75.842,0,0,1,13.218-16.427c6.282-5.766,12.118-8.615,17.268-11.129,6.912-3.374,12.882-6.289,17.608-15.031a47.327,47.327,0,0,0,3.81-9.842c1.345-4.547,2.615-8.838,7.218-14.327,3.6-4.3,8.793-7.648,18.215-13.734,6.2-4,11.094-7.167,14.918-9.334,4.062-2.3,6.663-3.328,8.433-3.328a2.9,2.9,0,0,1,1.8.534,3.243,3.243,0,0,1,1.064,3.108,30.813,30.813,0,0,1-1.118,5.151c-1.4,5.2-3.324,12.318-1.315,21.073a25.1,25.1,0,0,0,5.257,10.824c1.912,2.531,3.718,4.921,4.374,9.781a19.911,19.911,0,0,1-.163,6.085,38.574,38.574,0,0,1-2.005,7c-1.872,4.977-4.708,10.715-9.158,19.573-2.029,4.038-3.694,7.087-5.031,9.537l-.005.01c-3.229,5.913-4.565,8.36-4.543,12.87.028,5.973,2.36,9.454,4.615,12.82,1.686,2.516,3.278,4.892,3.69,8.1.444,3.466-.542,7.691-2.851,12.217a54.728,54.728,0,0,1-10.04,13.363Z" transform="translate(6600.85 116.16)"/></g><path class="l" d="M-6190.342,98.036H-6264.1a54.616,54.616,0,0,1-9.184-13.3,51.288,51.288,0,0,1-4.765-15.153,48.641,48.641,0,0,1,1.178-19.545,61.924,61.924,0,0,1,6.812-15.9,77.218,77.218,0,0,1,8.119-11.149,68,68,0,0,1,5.1-5.278c6.281-5.765,12.117-8.616,17.266-11.132,3.941-1.925,7.664-3.744,10.952-6.576.88,12.195,2.873,21.931,6.272,30.641,3.278,8.4,7.8,15.127,13.438,19.985,1.839,1.584,3.8,3.114,5.7,4.594,5.546,4.322,11.28,8.791,14.72,15.187a33.542,33.542,0,0,1,3.4,10.544,104.339,104.339,0,0,1,1.022,11.167l.009.163a72.189,72.189,0,0,1-6.289,5.755Z" transform="translate(7649.248 744.148)"/><g transform="translate(1370.703 685.131)"><path class="m" d="M1449.829,831.4s-16.113,17.245-31.113,51.645-46.238,102.588-46.238,102.588" transform="translate(-1340.219 -831.372)"/><line class="j" y1="19.553" x2="68.573" transform="translate(36.938 134.704)"/><line class="j" y1="28.15" x2="55.837" transform="translate(63.072 58.736)"/><line class="j" x2="11.379" y2="29.527" transform="translate(51.693 57.359)"/><line class="j" x2="6.402" y2="30.439" transform="translate(71.878 22.25)"/><line class="j" x2="30.192" y2="57.982" transform="translate(6.912 95.941)"/><line class="j" x1="23.26" y1="46.443" transform="translate(27.261 72.234)"/><line class="j" y1="26.421" x2="52.589" transform="translate(50.521 92.257)"/><line class="j" x1="34.62" y2="15.825" transform="translate(77.931 37.37)"/></g><path class="n" d="M-6238.758,126.682h-104.59a60.671,60.671,0,0,1-6.406-14.821,61.1,61.1,0,0,1-2.274-16.552V60.976a60.606,60.606,0,0,1,4.792-23.735,60.781,60.781,0,0,1,13.067-19.382,60.772,60.772,0,0,1,19.381-13.067A60.593,60.593,0,0,1-6291.054,0a60.593,60.593,0,0,1,23.734,4.792,60.768,60.768,0,0,1,19.381,13.067,60.755,60.755,0,0,1,13.068,19.382,60.6,60.6,0,0,1,4.792,23.735V95.309a61.1,61.1,0,0,1-2.274,16.552,60.653,60.653,0,0,1-6.406,14.821Z" transform="translate(7649.248 715.501)"/><g transform="translate(1476.44 760.689)"><path class="o" d="M1520.485,1004.286c8.766-5.119,14.431-2.534,20.2-9.251,3.451-4.018,3.287-7.109,8.11-10.843,2.213-1.713,5.026-2.788,10.56-4.867,8.406-3.159,12.609-4.738,13.84-3.317,1.706,1.97-3.952,6.256-3.858,14.46.066,5.839,2.963,6.35,2.565,11.306-.322,4.006-3.278,7.739-9.179,15.04-4.949,6.125-6.523,6.948-7.2,10.127-1.114,5.24,2.2,7.511,1.87,11.321-.835,9.61-24.4,23.637-40.738,13.873-8.315-4.968-12.99-15.041-12.355-24.308C1505.289,1013.44,1518.775,1005.285,1520.485,1004.286Z" transform="translate(-1504.247 -975.482)"/><path class="j" d="M1581.122,975.7s-8.227,8.532-20.319,21.721-36.539,54.209-36.539,54.209" transform="translate(-1512.799 -975.574)"/><line class="j" y1="2.311" x2="36.27" transform="translate(15.426 66.756)"/><line class="j" y1="7.972" x2="30.858" transform="translate(35.738 30.372)"/><line class="j" x2="2.469" y2="15.938" transform="translate(33.269 22.406)"/><line class="j" x1="0.108" y2="15.853" transform="translate(47.016 7.106)"/><line class="j" x2="8.757" y2="32.148" transform="translate(6.787 36.771)"/><line class="j" x1="6.555" y1="25.65" transform="translate(19.49 27.169)"/><line class="j" y1="7.595" x2="29.559" transform="translate(26.044 45.223)"/><line class="j" x1="18.956" y2="4.132" transform="translate(46.788 19.042)"/></g><g class="p" transform="translate(1399.12 698.508)"><rect class="h" width="2.146" height="4.603" rx="0.655" transform="translate(1.9 1.061) rotate(-29.632)"/><rect class="h" width="2.146" height="4.603" rx="0.655" transform="translate(6.503 9.154) rotate(-29.632)"/><rect class="h" width="2.146" height="4.603" rx="0.655" transform="translate(11.342 2.497) rotate(60.368)"/><rect class="h" width="2.146" height="4.603" rx="0.655" transform="translate(4.001 6.673) rotate(60.368)"/></g><g class="p" transform="translate(1203.12 725.508)"><rect class="q" width="2.146" height="4.603" rx="0.655" transform="translate(1.9 1.061) rotate(-29.632)"/><rect class="q" width="2.146" height="4.603" rx="0.655" transform="translate(6.503 9.154) rotate(-29.632)"/><rect class="q" width="2.146" height="4.603" rx="0.655" transform="translate(11.342 2.497) rotate(60.368)"/><rect class="q" width="2.146" height="4.603" rx="0.655" transform="translate(4.001 6.673) rotate(60.368)"/></g><g class="p" transform="translate(1531.607 732.085)"><rect class="q" width="1.632" height="3.499" rx="0.655" transform="translate(1.444 0.807) rotate(-29.632)"/><rect class="q" width="1.632" height="3.499" rx="0.655" transform="translate(4.943 6.959) rotate(-29.632)"/><rect class="q" width="1.632" height="3.499" rx="0.655" transform="translate(8.622 1.898) rotate(60.368)"/><rect class="q" width="1.632" height="3.499" rx="0.655" transform="translate(3.042 5.073) rotate(60.368)"/></g><g class="p" transform="translate(1223.804 774.355)"><rect class="h" width="1.217" height="2.611" rx="0.609" transform="translate(1.077 0.602) rotate(-29.632)"/><rect class="h" width="1.217" height="2.611" rx="0.609" transform="translate(3.688 5.191) rotate(-29.632)"/><rect class="h" width="1.217" height="2.611" rx="0.609" transform="translate(6.433 1.416) rotate(60.368)"/><rect class="h" width="1.217" height="2.611" rx="0.609" transform="translate(2.269 3.784) rotate(60.368)"/></g><g class="p" transform="translate(1299.804 686.355)"><rect class="h" width="1.217" height="2.611" rx="0.609" transform="translate(1.077 0.602) rotate(-29.632)"/><rect class="h" width="1.217" height="2.611" rx="0.609" transform="translate(3.688 5.191) rotate(-29.632)"/><rect class="h" width="1.217" height="2.611" rx="0.609" transform="translate(6.433 1.416) rotate(60.368)"/><rect class="h" width="1.217" height="2.611" rx="0.609" transform="translate(2.269 3.784) rotate(60.368)"/></g><g class="r" transform="translate(1291.018 817.899)"><rect class="s" width="2.146" height="4.603" rx="0.655" transform="translate(1.9 1.061) rotate(-29.632)"/><rect class="s" width="2.146" height="4.603" rx="0.655" transform="translate(6.503 9.154) rotate(-29.632)"/><rect class="s" width="2.146" height="4.603" rx="0.655" transform="translate(11.342 2.497) rotate(60.368)"/><rect class="s" width="2.146" height="4.603" rx="0.655" transform="translate(4.001 6.673) rotate(60.368)"/></g><path class="t" d="M1230.162,1021.361" transform="translate(91.28 -227.392)"/><rect class="u" width="7.56" height="7.56" rx="3.175" transform="translate(1508.201 758.007) rotate(66.833)"/><rect class="v" width="4.095" height="4.095" transform="translate(1329.44 766.184) rotate(145.973)"/><path class="w" d="M-6251.415,94.924h-79.539a49.025,49.025,0,0,1-6.948-13.48,49.156,49.156,0,0,1-2.495-15.511V49.212a48.9,48.9,0,0,1,3.868-19.156,49.041,49.041,0,0,1,10.547-15.642A49.047,49.047,0,0,1-6310.34,3.867,48.9,48.9,0,0,1-6291.185,0a48.905,48.905,0,0,1,19.156,3.867,49.047,49.047,0,0,1,15.642,10.546,49.052,49.052,0,0,1,10.546,15.642,48.911,48.911,0,0,1,3.867,19.156V65.933a49.171,49.171,0,0,1-2.494,15.511,49.013,49.013,0,0,1-6.947,13.48Z" transform="translate(7649.248 747.259)"/><path class="x" d="M-6249.464,97.267h-42.475c.121-.444.252-.921.4-1.46a127.7,127.7,0,0,0,3.27-15.113c.822-5.6.9-9.808.245-12.495-.163-.665-.3-1.313-.428-1.939a20.594,20.594,0,0,0-2.186-6.454l0,0c-1.058-1.9-2.057-3.7-3.423-3.769l-.074,0c-1.628,0-2.784,2.518-4.248,5.707-.591,1.289-1.2,2.618-1.914,3.943l-.015.028c-1.071,2-6.906,12.18-16.6,16.2a33.661,33.661,0,0,1-12.079,2.356,23.937,23.937,0,0,1-9.813-1.979c-6.383-2.847-11.559-8.985-14.573-17.283a46.817,46.817,0,0,1-2.708-17.1,40.665,40.665,0,0,1,3.858-16.626A31.83,31.83,0,0,1-6346.8,23.4a37.862,37.862,0,0,1,6.993-5.81c4.961-3.258,10.445-5.556,16.583-8.011a149.273,149.273,0,0,1,15.764-5.087A120.13,120.13,0,0,1-6276.951,0c14.994,0,25.981,4.193,32.656,12.462,6.647,8.233,6.748,17.711,6.915,33.414a137.386,137.386,0,0,1-1.331,23.559,76.848,76.848,0,0,1-3.6,14.181,55.7,55.7,0,0,1-7.154,13.651Z" transform="translate(7649.248 744.916)"/><path class="q" d="M1296.948,1011.306l-15.317-7.777-16.283,7.2v-9.523l16.185-6.205,17.1,6.587Z" transform="translate(76.25 -216.133)"/><path class="q" d="M1293.8,995.615l-1.583-.61-1.853.71c.411.415.831.8,1.26,1.161A22.2,22.2,0,0,0,1293.8,995.615Z" transform="translate(65.561 -216.133)"/><path class="y" d="M1289.013,1010.46a30.254,30.254,0,0,1-8.58-3.667,45.551,45.551,0,0,1-15.085,2.631v6.345l16.283-7.2,15.317,7.777.769-4.446A36.007,36.007,0,0,1,1289.013,1010.46Z" transform="translate(76.249 -221.169)"/><path class="z" d="M1232.348,932.809s22.443,27.638,45.688,31.648,31.059,3.165,31.059,3.165l15.093-20.033-27.586-22.53-35,7.75Z" transform="translate(90.347 -186.253)"/><path class="aa" d="M1211.83,955.743s31.3,6.442,45.352-3.28,17.144-14.45,17.144-14.45L1255.6,919.827l-47.422,19.425Z" transform="translate(100.67 -184.018)"/><path class="ab" d="M-6370.271,106.012h-35.661C-6398.5,96.8-6397.718,96-6396,94.247l.151-.155c2.37-2.423,4.413-4.273,6.215-5.905,4.449-4.031,7.389-6.693,10.171-13.194a34.851,34.851,0,0,0,2.751-11.078,60.406,60.406,0,0,1,4.409-17.276c.139-.353.27-.7.4-1.032,1.066-2.8,3.05-8.019,17.933-42.5l.007-.016c.334-.772,1.222-2.819,2.786-3.064a2.14,2.14,0,0,1,.331-.026,3.988,3.988,0,0,1,2.605,1.388c1.267,1.491,1.34,3.815.25,8.022a38.138,38.138,0,0,1-3.245,8.281,63.138,63.138,0,0,0-2.805,6.3c-.575,1.527-1.085,3.08-1.518,4.616a2.357,2.357,0,0,0-.726,3.082c-.092.549-.11.875-.049.894h.008c.053,0,.175-.142.373-.433a1.571,1.571,0,0,0,.63.4,1.528,1.528,0,0,0,.486.077,2.178,2.178,0,0,0,.782-.162c11.1-4.218,13.1-5.1,13.115-5.108a12.293,12.293,0,0,1,5.191-1.015c2.958,0,6.688.706,11.848,1.684,6.541,1.239,11.705,2.216,14.037,6.3.914,1.6,1.821,4.525.572,6.014a3.011,3.011,0,0,1-2.452.878,24.29,24.29,0,0,1-4.765-.764l-.515-.114-.014,0c-8.343-1.838-13.379-2.947-17.339-2.947a15.709,15.709,0,0,0-3.554.374c-3.761.864-8.943,3.633-11.17,8.592-2.007,4.468.028,10.1,3.722,20.331,3,8.293,4.445,12.03,7.448,13.75a14.1,14.1,0,0,0,7,1.7,18.083,18.083,0,0,0,9.325-2.557,20.031,20.031,0,0,0,3.432-2.855c1.638-1.6,3.05-2.972,5.446-3.16.182-.014.37-.021.558-.021a9.092,9.092,0,0,1,4.166,1.053,4.472,4.472,0,0,1,2.437,2.692c.274,1.173-.2,2.676-1.377,4.346a22.615,22.615,0,0,1-6.754,5.923,25.266,25.266,0,0,1-9.911,3.479,19.625,19.625,0,0,1-2.251.13,31.175,31.175,0,0,1-3.695-.271l-.138-.016a34.532,34.532,0,0,0-4.119-.288,29.909,29.909,0,0,0-4.977.445,61.314,61.314,0,0,0-9.165,2.578c-2.628.872-11.491,3.864-15.18,5.728a17.055,17.055,0,0,0-7.129,6.674Z" transform="translate(7649.248 736.172)"/><circle class="ac" cx="26.707" cy="26.707" r="26.707" transform="translate(1293.195 767.893)"/><path class="ab" d="M-6176.911,79.215h-37.44c-1.9-3.3-3.633-5.42-5.439-6.674a35.092,35.092,0,0,0-3.944-2.317,31.108,31.108,0,0,0-9.738-2.888c-5.595-.764-9.894-1.067-13.348-1.311-4.854-.343-8.36-.59-12.495-1.791a42.413,42.413,0,0,1-12.949-6.381c-3.686-2.766-5.543-5.451-5.1-7.366a4.475,4.475,0,0,1,2.437-2.692,9.08,9.08,0,0,1,4.163-1.053c.19,0,.379.007.562.022,2.394.187,3.806,1.562,5.441,3.154a19.983,19.983,0,0,0,3.438,2.86,18.083,18.083,0,0,0,9.326,2.557,14.1,14.1,0,0,0,7-1.7c3-1.72,4.453-5.458,7.446-13.748,3.7-10.23,5.731-15.866,3.725-20.335-2.227-4.956-7.409-7.726-11.171-8.592a15.711,15.711,0,0,0-3.554-.373c-3.963,0-9,1.111-17.353,2.952l-.374.083-.147.033a24.3,24.3,0,0,1-4.76.762,3.013,3.013,0,0,1-2.452-.877c-1.248-1.488-.341-4.413.572-6.015,2.3-4.027,7.22-4.981,14.034-6.3A49.934,49.934,0,0,1-6249.719,0a17.25,17.25,0,0,1,7.3,1.512,100.476,100.476,0,0,1,12.41,7.13,62.124,62.124,0,0,1,8.419,6.67A22.854,22.854,0,0,1-6216,22.968a90.813,90.813,0,0,0,7.825,16.178,64.64,64.64,0,0,1,4.711,9.05c2.782,6.5,5.722,9.163,10.171,13.193l.009.008c1.8,1.633,3.845,3.484,6.207,5.9a110.682,110.682,0,0,1,10.168,11.918Z" transform="translate(7649.248 762.97)"/><path class="ab" d="M-6176.911,79.215h-37.438c-1.905-3.3-3.634-5.419-5.441-6.674a34.3,34.3,0,0,0-3.944-2.317c-.349-.17-.7-.335-1.086-.5a112.96,112.96,0,0,0,11.782.826h.044A1.951,1.951,0,0,0-6211,68.5a2.027,2.027,0,0,0-2.034-2.163,108.707,108.707,0,0,1-17.22-1.682,113.8,113.8,0,0,1-16.748-4.356,98.033,98.033,0,0,1-15.348-6.671l-.268-.146c-3.265-1.778-6.961-3.792-9.582-6.6a8.611,8.611,0,0,1,1.465-.132c.184,0,.366.007.542.021,2.4.187,3.807,1.562,5.442,3.155l0,0h0a19.989,19.989,0,0,0,3.433,2.855,18.083,18.083,0,0,0,9.326,2.557,14.1,14.1,0,0,0,7-1.7c3-1.72,4.453-5.458,7.446-13.748,3.7-10.23,5.731-15.866,3.725-20.335-2.227-4.957-7.41-7.726-11.171-8.592a15.709,15.709,0,0,0-3.554-.373c-3.961,0-9,1.111-17.35,2.951l-.363.08-.162.036a24.3,24.3,0,0,1-4.76.762,3.013,3.013,0,0,1-2.452-.877c-1.248-1.488-.341-4.412.572-6.015,2.3-4.027,7.22-4.981,14.034-6.3A49.932,49.932,0,0,1-6249.719,0a17.255,17.255,0,0,1,7.3,1.512,100.834,100.834,0,0,1,12.409,7.13,62.151,62.151,0,0,1,8.418,6.67A22.854,22.854,0,0,1-6216,22.968a90.813,90.813,0,0,0,7.825,16.178,64.647,64.647,0,0,1,4.711,9.05c2.782,6.5,5.722,9.163,10.171,13.193l.008.007c1.8,1.633,3.845,3.484,6.207,5.9a110.682,110.682,0,0,1,10.168,11.918Z" transform="translate(7649.248 762.97)"/><path class="ad" d="M1337.881,1035.341a34.414,34.414,0,0,0,9.592,1.235c1.118-.039,16.2-.817,22.833-13.269,4.637-8.711,2.151-17.53,1.494-19.635-.384-1.21-.786-2.411-1.228-3.59-1.824-4.863-5.007-7.122-9.812-8.79-1.069-.371-2.144-.733-3.216-1.1a14.88,14.88,0,0,1,5.916,6.412c1.968,4.38.1,9.758-3.723,20.335-2.879,7.971-4.381,11.992-7.447,13.747-4.737,2.713-11.753,1.989-16.325-.859-3.668-2.285-5.021-5.713-8.879-6.014a8.955,8.955,0,0,0-4.887,1.124A28.5,28.5,0,0,0,1337.881,1035.341Z" transform="translate(51.962 -214.076)"/><path class="ad" d="M1456.24,1058.714c-7.778-7.831-12.009-9.6-15.844-18.557-3.088-7.214-4.981-8.9-8.079-15.053a13.876,13.876,0,0,0-1.089,1.988c.659,7.308,4.51,13.275,8.638,19.156a38.281,38.281,0,0,0,15.7,12.821A3.161,3.161,0,0,1,1456.24,1058.714Z" transform="translate(5.387 -228.991)"/><path class="ae" d="M1332.057,987.014c9.383-2.068,14.735-3.243,18.915-2.881-.271-.092-.54-.186-.811-.278-5.072-1.722-10.093-2.638-15.419-1.575a28.289,28.289,0,0,0-6.807,2.494,7.836,7.836,0,0,1-4.159.99,2.624,2.624,0,0,0,.548,1.249C1325.6,988.538,1328.643,987.766,1332.057,987.014Z" transform="translate(51.289 -210.503)"/><path class="q" d="M26.707,0A26.707,26.707,0,1,1,0,26.707,26.707,26.707,0,0,1,26.707,0Z" transform="translate(1368.954 767.893)"/><path class="af" d="M20.783,0A20.783,20.783,0,1,1,0,20.783,20.783,20.783,0,0,1,20.783,0Z" transform="translate(1374.878 773.817)"/><g transform="translate(1376.759 775.697)"><circle class="ag" cx="18.903" cy="18.903" r="18.903"/></g><g transform="translate(1375.949 774.887)"><circle class="ah" cx="19.713" cy="19.713" r="19.713"/></g><g transform="translate(1376.759 775.697)"><circle class="ag" cx="18.903" cy="18.903" r="18.903"/></g><g class="ai" transform="translate(1376.759 775.697)"><circle class="aj" cx="18.903" cy="18.903" r="18.903"/></g><path class="ak" d="M1358.017,990.706a18.9,18.9,0,0,1-14.318,34.712,18.9,18.9,0,1,0,14.318-34.712Z" transform="translate(42.778 -214.297)"/><g class="al" transform="translate(1379.899 780.516)"><g class="am"><path class="an" d="M1360.582,997.876c-.276.27-.554.538-.842.8-1.854,1.666-3.858,3.187-5.764,4.793-4.163,3.511-8.187,7.179-12.305,10.742-3.152,2.727-6.316,5.442-9.455,8.183a18.9,18.9,0,1,0,28.367-24.516Z" transform="translate(-1332.215 -997.876)"/></g></g><circle class="q" cx="26.707" cy="26.707" r="26.707" transform="translate(1293.183 767.893)"/><circle class="af" cx="20.783" cy="20.783" r="20.783" transform="translate(1299.107 773.817)"/><g transform="translate(1300.177 774.887)"><g transform="translate(0)"><circle class="ah" cx="19.713" cy="19.713" r="19.713"/></g></g><g transform="translate(1300.987 775.697)"><circle class="ao" cx="18.903" cy="18.903" r="18.903"/></g><circle class="ac" cx="5.567" cy="5.567" r="5.567" transform="translate(1352.214 778.872)"/><circle class="af" cx="5.7" cy="5.7" r="5.7" transform="translate(1352.082 778.739)"/><path class="ae" d="M1202.833,922.3l-.074-.055a3.183,3.183,0,0,0-4.457.625l-26.653,35.344.274.207c4.737-2.717,10.321-3.59,15.749-4.773a2.027,2.027,0,0,1,2.026.644l14.858-19.7A8.774,8.774,0,0,0,1202.833,922.3Z" transform="translate(116.277 -184.776)"/><path class="ap" d="M1680.712,1148.321a5.774,5.774,0,0,0,.644.612,1.225,1.225,0,0,0,.745,1.433l1.106.429a1.225,1.225,0,0,0,1.516-.556,5.834,5.834,0,0,0,.888-.018,1.225,1.225,0,0,0,1.539.484l1.085-.479a1.224,1.224,0,0,0,.679-1.463c.11-.1.217-.2.318-.306a1.226,1.226,0,0,0,1.483-.634l.512-1.069a1.225,1.225,0,0,0-.439-1.556,5.77,5.77,0,0,0,.025-1.334,1.224,1.224,0,0,0,.485-1.539l-.479-1.085a1.225,1.225,0,0,0-1.463-.679,5.762,5.762,0,0,0-.644-.612,1.226,1.226,0,0,0-.745-1.433l-1.106-.429a1.225,1.225,0,0,0-1.516.557,5.776,5.776,0,0,0-.888.018,1.225,1.225,0,0,0-1.539-.484l-1.085.479a1.224,1.224,0,0,0-.679,1.463c-.11.1-.217.2-.319.306a1.225,1.225,0,0,0-1.482.634l-.513,1.069a1.225,1.225,0,0,0,.439,1.556,5.779,5.779,0,0,0-.025,1.333,1.225,1.225,0,0,0-.485,1.539l.479,1.085A1.226,1.226,0,0,0,1680.712,1148.321Zm3.075-6.708a3.091,3.091,0,1,1-1.58,4.076A3.091,3.091,0,0,1,1683.787,1141.612Z" transform="translate(-461.317 -316.221)"/><path class="aa" d="M1302.6,885.635c-1.005-.71-5.988-4.227-6.45-7.809-.622-4.818,7.4-6.154,6.629-7.039-1.073-1.236-17.947-.07-17.429,5.426.4,4.277,11.086,8.5,10.374,11.481-.659,2.759-10.3,1.151-10.055,2.211.218.958,8.29,3.186,16.821,3.754,7.636.509,15.068-.351,14.646-1.753C1316.724,890.545,1309.444,890.468,1302.6,885.635Z" transform="translate(67.711 -162.877)"/><path class="aa" d="M1274.086,882.1a7.236,7.236,0,0,0-1.577-5.878c-2.837-3.255-8.17-3.251-8.328-3.922-.221-.936,9.914-2.033,13.255,1.659,2.6,2.873-.538,6.849,1.825,8.741,2.188,1.752,6.474-.378,7.04.35.511.657-2.5,3.024-6.856,4.344-3.9,1.182-8.594,1.436-9.286.462C1269.488,886.91,1273.478,886.054,1274.086,882.1Z" transform="translate(76.749 -163.325)"/><circle class="q" cx="4.174" cy="4.174" r="4.174" transform="translate(1353.608 780.265)"/><rect class="h" width="439.534" height="9.94" rx="4.97" transform="translate(1144.918 833.564)"/><path class="aq" d="M1634.308,1057.788a12.272,12.272,0,0,0,1.372,1.3,2.609,2.609,0,0,0,1.587,3.053l2.356.914a2.611,2.611,0,0,0,3.231-1.185,12.368,12.368,0,0,0,1.892-.038,2.61,2.61,0,0,0,3.278,1.032l2.312-1.02a2.61,2.61,0,0,0,1.448-3.117c.234-.21.462-.427.678-.652a2.61,2.61,0,0,0,3.158-1.35l1.093-2.279a2.61,2.61,0,0,0-.935-3.314,12.319,12.319,0,0,0,.053-2.842,2.609,2.609,0,0,0,1.032-3.278l-1.02-2.312a2.61,2.61,0,0,0-3.117-1.448,12.294,12.294,0,0,0-1.372-1.3,2.609,2.609,0,0,0-1.587-3.053l-2.357-.914a2.61,2.61,0,0,0-3.23,1.186,12.2,12.2,0,0,0-1.892.038,2.61,2.61,0,0,0-3.278-1.032l-2.312,1.02a2.61,2.61,0,0,0-1.448,3.117c-.234.21-.462.426-.678.653a2.61,2.61,0,0,0-3.158,1.349l-1.093,2.279a2.61,2.61,0,0,0,.935,3.314,12.3,12.3,0,0,0-.053,2.842,2.61,2.61,0,0,0-1.032,3.278l1.02,2.313A2.611,2.611,0,0,0,1634.308,1057.788Zm6.551-14.291a6.585,6.585,0,1,1-3.367,8.682A6.584,6.584,0,0,1,1640.859,1043.5Z" transform="translate(-79.506 -229.564)"/><path class="ar" d="M1635.337,1062.976a15.176,15.176,0,0,0,1.7,1.611,3.225,3.225,0,0,0,1.961,3.773l2.912,1.129a3.227,3.227,0,0,0,3.993-1.465,15.275,15.275,0,0,0,2.339-.047,3.226,3.226,0,0,0,4.052,1.276l2.857-1.261a3.226,3.226,0,0,0,1.79-3.853c.29-.26.571-.527.837-.806a3.225,3.225,0,0,0,3.9-1.668l1.351-2.817a3.226,3.226,0,0,0-1.156-4.1,15.235,15.235,0,0,0,.066-3.512,3.225,3.225,0,0,0,1.275-4.052l-1.26-2.858a3.225,3.225,0,0,0-3.853-1.789,15.22,15.22,0,0,0-1.7-1.611,3.225,3.225,0,0,0-1.961-3.774l-2.913-1.13a3.226,3.226,0,0,0-3.992,1.466,15.073,15.073,0,0,0-2.338.047,3.226,3.226,0,0,0-4.052-1.276l-2.857,1.261a3.226,3.226,0,0,0-1.79,3.853c-.29.26-.571.527-.838.807a3.226,3.226,0,0,0-3.9,1.667l-1.351,2.817a3.226,3.226,0,0,0,1.156,4.1,15.214,15.214,0,0,0-.066,3.513,3.225,3.225,0,0,0-1.275,4.052l1.26,2.858A3.227,3.227,0,0,0,1635.337,1062.976Zm8.1-17.664a8.139,8.139,0,1,1-4.162,10.731A8.138,8.138,0,0,1,1643.433,1045.312Z" transform="translate(-475.708 -235.801)"/><path class="ar" d="M1632.842,1050.4a8.158,8.158,0,0,0,.91.865,1.732,1.732,0,0,0,1.053,2.026l1.563.606a1.733,1.733,0,0,0,2.144-.787,8.182,8.182,0,0,0,1.256-.025,1.732,1.732,0,0,0,2.176.685l1.535-.677a1.732,1.732,0,0,0,.961-2.069c.155-.14.306-.283.45-.433a1.731,1.731,0,0,0,2.1-.9l.725-1.512a1.732,1.732,0,0,0-.621-2.2,8.165,8.165,0,0,0,.035-1.886,1.732,1.732,0,0,0,.685-2.176l-.677-1.535a1.732,1.732,0,0,0-2.069-.961,8.19,8.19,0,0,0-.911-.865,1.732,1.732,0,0,0-1.053-2.026l-1.564-.607a1.732,1.732,0,0,0-2.144.787,8.1,8.1,0,0,0-1.256.026,1.732,1.732,0,0,0-2.176-.685l-1.534.677a1.732,1.732,0,0,0-.961,2.069c-.156.14-.306.283-.45.433a1.732,1.732,0,0,0-2.1.9l-.725,1.512a1.732,1.732,0,0,0,.621,2.2,8.176,8.176,0,0,0-.035,1.886,1.732,1.732,0,0,0-.685,2.176l.677,1.535A1.733,1.733,0,0,0,1632.842,1050.4Zm4.347-9.484a4.37,4.37,0,1,1-2.235,5.762A4.37,4.37,0,0,1,1637.19,1040.911Z" transform="translate(-436.158 -220.713)"/><path class="an" d="M1225.706,990.706a18.9,18.9,0,0,1-14.318,34.712,18.9,18.9,0,1,0,14.318-34.712Z" transform="translate(99.301 -214.297)"/><g class="as" transform="translate(1304.11 780.516)"><path class="an" d="M1228.27,997.876c-.276.27-.554.538-.842.8-1.853,1.666-3.858,3.187-5.764,4.793-4.164,3.511-8.188,7.179-12.3,10.742-3.152,2.727-6.316,5.442-9.456,8.183a18.9,18.9,0,1,0,28.367-24.516Z" transform="translate(-1199.903 -997.876)"/></g></g></g></svg>